# xmcd
#
# Track frame offsets:
#	150
#	17765
#	34053
#	49509
#	68236
#	84205
#	101462
#	115540
#	128732
#	148679
#
# Disc length: 2232 seconds
#
# Revision: 0
# Processed by: cddbd v1.4PL0 Copyright (c) Steve Scherf et al.
# Submitted via: dBpowerAMP V4.0
#
DISCID=7608b60a
DTITLE=Nelson Norwood - Long, Loud 'N Sweaty
DYEAR=2001
DGENRE=Blues
TTITLE0=Take You Home
TTITLE1=Long, Loud 'n Sweaty
TTITLE2=Girl Friend Experience (GFE)
TTITLE3=American Girl
TTITLE4=Hooked On You
TTITLE5=Dixie Cup
TTITLE6=Lucky Strike
TTITLE7=Red Light
TTITLE8=Sweet Lovin'
TTITLE9=Don't Tear Me Up
EXTD=New album with Nelson Norwood
EXTT0=
EXTT1=
EXTT2=
EXTT3=
EXTT4=
EXTT5=
EXTT6=
EXTT7=
EXTT8=
EXTT9=
PLAYORDER=
